<?xml version="1.0" standalone="no"?><!DOCTYPE svg PUBLIC "-//W3C//DTD SVG 1.1//EN" "http://www.w3.org/Graphics/SVG/1.1/DTD/svg11.dtd"><svg t="1573220953382" class="icon" viewBox="0 0 1024 1024" version="1.1" xmlns="http://www.w3.org/2000/svg" p-id="2360" xmlns:xlink="http://www.w3.org/1999/xlink" width="200" height="200"><defs><style type="text/css"></style></defs><path d="M697.3 330.2c0.2-15.7-1-28.4-3.4-43-3.8-25-15.1-46.3-31.6-65.2-14.6-16.5-32.1-29.3-52.4-37.8-28.3-12.3-58.1-17.5-88.8-18.4-10.9-0.5-21.7 0.5-33.1 0.9-17.5 0.5-34.5 3.3-51.5 8-29.3 8-55.2 21.7-75.5 44.9-11.8 13.2-19.8 27.9-26 43.9-8 19.8-8 41.1-9 61.9-0.5 14.2 0.9 28.8 1.9 43 0.9 11.8 1.4 24.1 3.3 35.9 3.3 19.8 7.1 39.7 11.3 59.5 8 38.2 19.4 75.1 37.3 109.5 10.9 20.8 25.5 37.8 43.4 51.9 17.5 13.7 36.8 23.6 58.1 29.7 14.2 3.8 28.8 6.1 43.4 3.8 18.4-3.3 35.9-9.4 52.4-18.4 23.1-13.2 42-31.2 57.1-52.9 12.3-17.5 19.8-36.8 26.9-56.7 11.8-33.5 20.8-67.5 26-102.5 2.8-20.8 6.4-41.1 8-61.9 0.9-12.2 1.7-18.1 2.1-30.2l0.1-5.9z" p-id="2361" fill="#1296db"></path><path d="M402.2 638.9V662c0 7.1-1.9 14.2-6.1 19.8-8.5 12.3-20.3 19.4-34 23.1-24.6 7.1-49.1 13.7-73.2 20.3-28.3 7.6-56.7 15.1-85 22.2-9.9 2.8-19.8 5.2-30.7 8.5 103.4 120.4 232.8 176.6 390 159.6 117.1-12.7 212.5-68.5 288-159.1-17-4.3-33.1-8.5-49.1-12.3l-111.9-28.3c-17-4.2-34.5-8-50-16.5-16.5-9-26.9-21.7-25.5-41.5v-7.6c-0.5 0-0.9-0.5-1.4-0.5-1.4 1.9-2.8 3.8-4.2 5.2-16.1 16.5-34.9 29.7-56.2 38.3-22.7 9.4-45.8 11.3-69.9 3.3-24.1-8-44.9-21.2-62.8-38.7-7.2-5.2-11.9-11.8-18-18.9z m0 0" p-id="2362" fill="#1296db"></path><path d="M958.9 892H853.1v-26h80.3v-79.8h26V892h-0.5z m-792.3 0h-102V788.1h26V866h76v26z m-76-682.3h-26V106.3h105.3v26H90.6v77.4z m868.3-0.9h-26v-76.5h-81.2v-26h107.2v102.5z m-729.5-89.7H796v2.4H229.4v-2.4zM866.8 493H158.5l-47.2-3.8 47.2-3.3h708.2l47.2 3.3-47.1 3.8zM229.4 878.8H796v2.4H229.4v-2.4zM78.1 753.3V264.2h2.4v489.2h-2.4z m868.3 0V264.2h2.4v489.2h-2.4z m0 0" p-id="2363" fill="#1296db"></path></svg>