<?xml version="1.0" standalone="no"?><!DOCTYPE svg PUBLIC "-//W3C//DTD SVG 1.1//EN" "http://www.w3.org/Graphics/SVG/1.1/DTD/svg11.dtd"><svg t="1573225354453" class="icon" viewBox="0 0 1024 1024" version="1.1" xmlns="http://www.w3.org/2000/svg" p-id="9810" xmlns:xlink="http://www.w3.org/1999/xlink" width="200" height="200"><defs><style type="text/css"></style></defs><path d="M570.3719443 512l397.81686992-397.81808355c16.72260267-16.70803911 16.72260267-43.82537955 0-60.53341867-16.72260267-16.72138903-43.81202963-16.72138903-60.53341867 0L509.837312 451.46658133 112.02044208 53.64849778c-16.72260267-16.72138903-43.81202963-16.72138903-60.53341867 0-16.72260267 16.70925275-16.72260267 43.82659318 0 60.53341867L449.30389333 512 51.48823703 909.81808355c-16.72260267 16.70803911-16.72260267 43.82537955 0 60.53341867 8.36069452 8.35948089 19.31370192 12.54164859 30.26670934 12.5416486s21.90601482-4.18095408 30.26670933-12.5416486l397.81686993-397.81808355L907.65539555 970.35150222c8.36069452 8.35948089 19.31370192 12.54164859 30.26670934 12.5416486s21.90601482-4.18095408 30.26670933-12.5416486c16.72260267-16.70803911 16.72260267-43.82659318 0-60.53341867L570.37315792 512z" p-id="9811" fill=""></path></svg>