<?xml version="1.0" standalone="no"?><!DOCTYPE svg PUBLIC "-//W3C//DTD SVG 1.1//EN" "http://www.w3.org/Graphics/SVG/1.1/DTD/svg11.dtd"><svg t="1573834314308" class="icon" viewBox="0 0 1140 1024" version="1.1" xmlns="http://www.w3.org/2000/svg" p-id="27848" xmlns:xlink="http://www.w3.org/1999/xlink" width="222.65625" height="200"><defs><style type="text/css"></style></defs><path d="M596.992 214.528c-5.12-3.072-11.776-4.608-18.944-4.608-7.168 0-13.824 1.536-18.944 4.608h37.888z m-37.888 0L52.224 514.56c-22.016 13.312-20.992 35.328 1.536 48.128 22.016 13.312 58.368 13.312 80.384 0l443.904-262.656 444.416 262.656c22.528 13.312 58.368 12.8 80.384 0s23.552-35.328 1.536-48.128l-506.88-300.032h-38.4" p-id="27849"></path><path d="M597.504 447.488c-5.12-3.072-11.776-4.608-18.944-4.608-7.168 0-13.824 1.536-18.944 4.608h37.888z m-37.888 0L52.736 747.52c-22.016 13.312-20.992 35.328 1.536 48.64 22.016 13.312 57.856 13.312 80.384 0L578.56 533.504l444.416 262.656c22.528 13.312 58.368 12.8 80.384 0 22.016-13.312 23.552-35.328 1.536-48.64l-506.88-300.032h-38.4" p-id="27850"></path></svg>