<?xml version="1.0" standalone="no"?><!DOCTYPE svg PUBLIC "-//W3C//DTD SVG 1.1//EN" "http://www.w3.org/Graphics/SVG/1.1/DTD/svg11.dtd"><svg t="1573488840883" class="icon" viewBox="0 0 1024 1024" version="1.1" xmlns="http://www.w3.org/2000/svg" p-id="3895" xmlns:xlink="http://www.w3.org/1999/xlink" width="200" height="200"><defs><style type="text/css"></style></defs><path d="M511.544889 227.555556C312.604444 227.555556 121.287111 353.507556 56.888889 530.659556c64.398222 177.095111 255.715556 303.104 454.656 303.104 197.973333 0 391.168-126.008889 455.566222-303.104C901.745778 353.507556 709.461333 227.555556 511.544889 227.555556z m0 492.544a190.008889 190.008889 0 0 1-189.44-189.44 190.008889 190.008889 0 0 1 189.44-189.44 190.008889 190.008889 0 0 1 189.44 189.44 190.008889 190.008889 0 0 1-189.44 189.44z m113.664-189.44c0 62.520889-51.2 113.664-113.664 113.664-62.577778 0-113.664-51.2-113.664-113.664 0-62.577778 51.143111-113.664 113.664-113.664s113.664 51.143111 113.664 113.664z" p-id="3896"></path></svg>