<?xml version="1.0" standalone="no"?><!DOCTYPE svg PUBLIC "-//W3C//DTD SVG 1.1//EN" "http://www.w3.org/Graphics/SVG/1.1/DTD/svg11.dtd"><svg t="1573488887894" class="icon" viewBox="0 0 1024 1024" version="1.1" xmlns="http://www.w3.org/2000/svg" p-id="5572" xmlns:xlink="http://www.w3.org/1999/xlink" width="200" height="200"><defs><style type="text/css"></style></defs><path d="M511.9 597.6c-242 0-431.9-237.8-439.9-248-12.1-15.4-9.5-37.7 6-49.9 15.4-12.1 37.7-9.5 49.9 6 1.7 2.2 176.8 220.9 384.1 220.9s382.4-218.7 384.1-220.9c12.2-15.4 34.5-18 49.9-5.9s18.1 34.4 5.9 49.8c-8.1 10.2-198 248-440 248z" p-id="5573"></path><path d="M146.6 618.4c-9.1 0-18.2-3.5-25.1-10.4-13.9-13.9-13.9-36.4 0-50.2L227 452.3c13.9-13.9 36.4-13.9 50.2 0 13.9 13.9 13.9 36.4 0 50.2L171.7 608c-6.9 6.9-16 10.4-25.1 10.4zM863 618.4c-9.1 0-18.2-3.5-25.1-10.4L732.4 502.5c-13.9-13.9-13.9-36.3 0-50.2 13.9-13.9 36.4-13.9 50.2 0l105.5 105.5c13.9 13.9 13.9 36.3 0 50.2-6.9 6.9-16 10.4-25.1 10.4zM350.9 732c-5.3 0-10.7-1.2-15.7-3.7-17.6-8.7-24.8-30-16.1-47.6L385.2 547c8.7-17.6 30-24.8 47.6-16.1s24.8 30 16.1 47.6l-66.1 133.7c-6.2 12.5-18.8 19.8-31.9 19.8zM644.4 732c-13.1 0-25.7-7.3-31.9-19.8l-66.1-133.7c-8.7-17.6-1.5-38.9 16.1-47.6 17.6-8.7 38.9-1.5 47.6 16.1l66.1 133.7c8.7 17.6 1.5 38.9-16.1 47.6-5 2.5-10.4 3.7-15.7 3.7z" p-id="5574"></path></svg>