<?xml version="1.0" standalone="no"?><!DOCTYPE svg PUBLIC "-//W3C//DTD SVG 1.1//EN" "http://www.w3.org/Graphics/SVG/1.1/DTD/svg11.dtd"><svg t="1573658001265" class="icon" viewBox="0 0 1024 1024" version="1.1" xmlns="http://www.w3.org/2000/svg" p-id="7277" xmlns:xlink="http://www.w3.org/1999/xlink" width="200" height="200"><defs><style type="text/css"></style></defs><path d="M720 512c-31.3 0-56.7-25.4-56.7-56.7 0-31.3 25.4-56.7 56.7-56.7 31.3 0 56.7 25.4 56.7 56.7 0 31.3-25.4 56.7-56.7 56.7m-208 0c-31.3 0-56.7-25.4-56.7-56.7 0-31.3 25.4-56.7 56.7-56.7 31.3 0 56.7 25.4 56.7 56.7 0 31.3-25.4 56.7-56.7 56.7m-208 0c-20.6 0.5-39.9-10.1-50.4-27.9a56.6 56.6 0 0 1 0-57.6c10.5-17.8 29.7-28.5 50.3-27.9 30.8 0.8 55.3 25.9 55.3 56.7 0.1 30.7-24.5 55.9-55.2 56.7M858.6 96H165.4C127.1 96 96 128.5 96 168.4v557.1c0 39.9 31.2 72.4 69.5 72.4h223.8c7 0 18.5 6.8 21.6 12.7l45 85.1 3.4 5.4c13.2 17.1 32.3 27 52.6 27 20.3 0 39.4-9.8 52.7-27l48.4-90.5c2.9-5.4 14.1-12.7 21.7-12.7h224c38.2 0 69.3-32.4 69.3-72.4V168.4c0-39.9-31.1-72.4-69.4-72.4" p-id="7278"></path></svg>