<?xml version="1.0" standalone="no"?><!DOCTYPE svg PUBLIC "-//W3C//DTD SVG 1.1//EN" "http://www.w3.org/Graphics/SVG/1.1/DTD/svg11.dtd"><svg t="1573657985204" class="icon" viewBox="0 0 1024 1024" version="1.1" xmlns="http://www.w3.org/2000/svg" p-id="6524" xmlns:xlink="http://www.w3.org/1999/xlink" width="200" height="200"><defs><style type="text/css"></style></defs><path d="M884.363636 69.818182H139.636364C62.836364 69.818182 0 132.654545 0 209.454545v442.181819c0 76.8 62.836364 139.636364 139.636364 139.636363h372.363636l232.727273 162.909091v-162.909091h139.636363c76.8 0 139.636364-62.836364 139.636364-139.636363V209.454545c0-76.8-62.836364-139.636364-139.636364-139.636363zM302.545455 500.363636c-39.563636 0-69.818182-30.254545-69.818182-69.818181s30.254545-69.818182 69.818182-69.818182 69.818182 30.254545 69.818181 69.818182-30.254545 69.818182-69.818181 69.818181z m209.454545 0c-39.563636 0-69.818182-30.254545-69.818182-69.818181s30.254545-69.818182 69.818182-69.818182 69.818182 30.254545 69.818182 69.818182-30.254545 69.818182-69.818182 69.818181z m209.454545 0c-39.563636 0-69.818182-30.254545-69.818181-69.818181s30.254545-69.818182 69.818181-69.818182 69.818182 30.254545 69.818182 69.818182-30.254545 69.818182-69.818182 69.818181z" p-id="6525"></path></svg>