<?xml version="1.0" standalone="no"?><!DOCTYPE svg PUBLIC "-//W3C//DTD SVG 1.1//EN" "http://www.w3.org/Graphics/SVG/1.1/DTD/svg11.dtd"><svg t="1573657943389" class="icon" viewBox="0 0 1024 1024" version="1.1" xmlns="http://www.w3.org/2000/svg" p-id="4404" xmlns:xlink="http://www.w3.org/1999/xlink" width="200" height="200"><defs><style type="text/css"></style></defs><path d="M63.961754 727.32102c0 42.131563 34.123168 76.254731 76.252685 76.254731l114.379027 0 0 117.615745c0 21.169135 17.164938 38.126342 38.126342 38.126342 10.685363 0 20.384259-4.384867 27.254737-11.428284L464.288348 803.575752l419.389766 0c42.129516 0 76.252685-34.123168 76.252685-76.254731L959.930799 250.743788c0-42.131563-34.123168-76.254731-76.252685-76.254731l-743.462652 0c-42.129516 0-76.252685 34.123168-76.252685 76.254731L63.962777 727.32102zM292.719808 508.09711c0-26.305109 21.352307-47.659463 47.657416-47.659463 26.305109 0 47.657416 21.354354 47.657416 47.659463 0 26.303063-21.352307 47.656393-47.657416 47.656393C314.072115 555.75248 292.719808 534.400173 292.719808 508.09711zM464.288348 508.09711c0-26.305109 21.352307-47.659463 47.657416-47.659463 26.305109 0 47.657416 21.354354 47.657416 47.659463 0 26.303063-21.352307 47.656393-47.657416 47.656393C485.640656 555.75248 464.288348 534.400173 464.288348 508.09711zM635.856889 508.09711c0-26.305109 21.352307-47.659463 47.657416-47.659463s47.657416 21.354354 47.657416 47.659463c0 26.303063-21.352307 47.656393-47.657416 47.656393S635.856889 534.400173 635.856889 508.09711z" p-id="4405"></path></svg>