<?xml version="1.0" standalone="no"?><!DOCTYPE svg PUBLIC "-//W3C//DTD SVG 1.1//EN" "http://www.w3.org/Graphics/SVG/1.1/DTD/svg11.dtd"><svg t="1573657925429" class="icon" viewBox="0 0 1024 1024" version="1.1" xmlns="http://www.w3.org/2000/svg" p-id="4271" xmlns:xlink="http://www.w3.org/1999/xlink" width="200" height="200"><defs><style type="text/css"></style></defs><path d="M631.324666 840.075037c-0.118704 65.960271-53.038984 119.394251-119.324666 119.394251-65.828264 0-119.205962-53.212946-119.324666-119.394251L631.324666 840.075037 631.324666 840.075037zM591.549777 144.080489c0-43.844577-35.616172-79.549777-79.549777-79.549777-43.844577 0-79.549777 35.616172-79.549777 79.549777 0 4.475941 0.37146 8.866948 1.084705 13.143345C323.686077 195.509812 233.573733 313.087695 233.573733 452.196962l0 109.521392c0 0 0 157.727301-38.750559 159.100578-23.101137 0-40.799218 17.807574-40.799218 39.774889 0 22.12081 17.805528 39.774889 39.769772 39.774889l318.206272 0 278.426267 0 39.781028 0c22.071691 0 39.768749-17.807574 39.768749-39.774889 0-22.12081-17.805528-39.774889-39.768749-39.774889-39.781028 0-39.781028-157.994384-39.781028-157.994384L790.426267 452.212312c0-139.288347-84.260056-256.917394-199.941751-295.089785C591.18548 152.878876 591.549777 148.521638 591.549777 144.080489z" p-id="4272"></path></svg>