<?xml version="1.0" standalone="no"?><!DOCTYPE svg PUBLIC "-//W3C//DTD SVG 1.1//EN" "http://www.w3.org/Graphics/SVG/1.1/DTD/svg11.dtd"><svg t="1571769099208" class="icon" viewBox="0 0 1024 1024" version="1.1" xmlns="http://www.w3.org/2000/svg" p-id="14904" xmlns:xlink="http://www.w3.org/1999/xlink" width="200" height="200"><defs><style type="text/css"></style></defs><path d="M238.250667 322.491733c35.157333-26.624 63.761067-12.356267 63.761066 31.812267v251.426133c0 44.168533-28.603733 58.368-63.829333 31.744l-144.520533-109.226666c-35.2256-26.624-35.2256-69.8368 0-96.4608l144.520533-109.226667zM989.866667 53.316267A53.316267 53.316267 0 0 0 936.5504 0H90.7264a53.316267 53.316267 0 1 0 0 106.7008h845.824c29.422933 0 53.316267-23.893333 53.316267-53.384533z m0 853.333333a53.316267 53.316267 0 0 0-53.316267-53.316267H90.7264a53.316267 53.316267 0 1 0 0 106.7008h845.824c29.422933 0 53.316267-23.893333 53.316267-53.384533z m0-586.683733a53.316267 53.316267 0 0 0-53.316267-53.316267H514.048a53.316267 53.316267 0 1 0 0 106.7008h422.5024c29.422933 0 53.316267-23.893333 53.316267-53.384533z m0 320.034133a53.316267 53.316267 0 0 0-53.316267-53.316267H514.048a53.316267 53.316267 0 1 0 0 106.632534h422.5024c29.422933 0 53.316267-23.893333 53.316267-53.316267z" p-id="14905" ></path></svg>