<?xml version="1.0" standalone="no"?><!DOCTYPE svg PUBLIC "-//W3C//DTD SVG 1.1//EN" "http://www.w3.org/Graphics/SVG/1.1/DTD/svg11.dtd"><svg t="1571848339134" class="icon" viewBox="0 0 1024 1024" version="1.1" xmlns="http://www.w3.org/2000/svg" p-id="21293" xmlns:xlink="http://www.w3.org/1999/xlink" width="200" height="200"><defs><style type="text/css"></style></defs><path d="M940.802 939.949c0 0.014 0 0.021-0.051 0.044-28.183 28.22-73.991 28.262-102.218 0.05L512.127 614.299 186.382 940.653c-0.051 0.021-0.051 0.05-0.051 0.05-28.227 28.235-74.035 28.256-102.262 0.052-28.328-28.248-28.372-74.05-0.146-102.32l325.746-326.37L83.313 186.312c-28.278-28.227-28.328-74.027-0.094-102.29 0-0.022 0-0.036 0.044-0.052 28.183-28.19 73.948-28.212 102.226-0.007l326.355 325.745L837.64 83.34l0.044-0.051c28.234-28.227 73.99-28.256 102.269-0.014 28.32 28.226 28.32 74.027 0.094 102.312L614.3 511.942l326.406 325.745c28.228 28.227 28.322 74.02 0.095 102.262z" p-id="21294" ></path></svg>