<?xml version="1.0" standalone="no"?><!DOCTYPE svg PUBLIC "-//W3C//DTD SVG 1.1//EN" "http://www.w3.org/Graphics/SVG/1.1/DTD/svg11.dtd"><svg t="1571848978324" class="icon" viewBox="0 0 1024 1024" version="1.1" xmlns="http://www.w3.org/2000/svg" p-id="28230" xmlns:xlink="http://www.w3.org/1999/xlink" width="200" height="200"><defs><style type="text/css"></style></defs><path d="M347.428571 950.857143h-219.428571a54.857143 54.857143 0 0 1-54.857143-54.857143v-219.428571a54.857143 54.857143 0 0 1 109.714286 0v86.674285l180.516571-180.516571a55.076571 55.076571 0 1 1 77.824 77.970286L260.242286 841.142857H347.428571a54.857143 54.857143 0 1 1 0 109.714286zM621.714286 457.142857a54.857143 54.857143 0 0 1-38.912-93.769143L763.830857 182.857143H676.571429a54.857143 54.857143 0 0 1 0-109.714286h219.428571a54.857143 54.857143 0 0 1 54.857143 54.857143v219.428571a54.857143 54.857143 0 1 1-109.714286 0V260.242286L660.699429 441.197714a54.857143 54.857143 0 0 1-38.985143 15.945143z" p-id="28231"></path></svg>