<?xml version="1.0" standalone="no"?><!DOCTYPE svg PUBLIC "-//W3C//DTD SVG 1.1//EN" "http://www.w3.org/Graphics/SVG/1.1/DTD/svg11.dtd"><svg t="1571848443259" class="icon" viewBox="0 0 1024 1024" version="1.1" xmlns="http://www.w3.org/2000/svg" p-id="22322" xmlns:xlink="http://www.w3.org/1999/xlink" width="200" height="200"><defs><style type="text/css"></style></defs><path d="M949.6 142.4L696 396h108c26.4 0 48 21.6 48 48s-21.6 48-48 48H580c-26.4 0-48-21.6-48-48V220c0-26.4 21.6-48 48-48s48 21.6 48 48v108.8L882.4 74.4c18.4-18.4 48.8-18.4 68 0 18.4 18.4 18.4 48.8-0.8 68zM452 844c-26.4 0-48-21.6-48-48V688L150.4 941.6c-18.4 18.4-48.8 18.4-68 0-18.4-18.4-18.4-48.8 0-68l254.4-254.4H228c-26.4 0-48-21.6-48-48s21.6-48 48-48h224c26.4 0 48 21.6 48 48v224c0 27.2-21.6 48.8-48 48.8z" p-id="22323"></path></svg>