<?xml version="1.0" standalone="no"?><!DOCTYPE svg PUBLIC "-//W3C//DTD SVG 1.1//EN" "http://www.w3.org/Graphics/SVG/1.1/DTD/svg11.dtd"><svg t="1571849034759" class="icon" viewBox="0 0 1024 1024" version="1.1" xmlns="http://www.w3.org/2000/svg" p-id="28353" xmlns:xlink="http://www.w3.org/1999/xlink" width="200" height="200"><defs><style type="text/css"></style></defs><path d="M936.671561 427.065586h-339.737658v-339.737658c0-46.946218-38.071084-84.934414-84.934415-84.934415-46.946218 0-84.934414 37.988196-84.934414 84.934415v339.737658h-339.737658c-46.946218 0-84.934414 37.988196-84.934414 84.934414 0 46.863331 37.988196 84.934414 84.934414 84.934414h339.737658v339.737658c0 46.863331 37.988196 84.934414 84.934414 84.934415 46.863331 0 84.934414-38.071084 84.934415-84.934415v-339.737658h339.737658c46.863331 0 84.934414-38.071084 84.934414-84.934414 0-46.946218-38.071084-84.934414-84.934414-84.934414z" p-id="28354"></path></svg>