<?xml version="1.0" standalone="no"?><!DOCTYPE svg PUBLIC "-//W3C//DTD SVG 1.1//EN" "http://www.w3.org/Graphics/SVG/1.1/DTD/svg11.dtd"><svg t="1571767256757" class="icon" viewBox="0 0 1024 1024" version="1.1" xmlns="http://www.w3.org/2000/svg" p-id="7582" xmlns:xlink="http://www.w3.org/1999/xlink" width="200" height="200"><defs><style type="text/css"></style></defs><path d="M783.43779 473.468c11.876 81.718-13.062 167.782-76.812 230.594-94.188 92.938-239.5 104.376-346.376 34.562l74.876-73L159.93579 627.248l38.406 268.75 84.03-80.5c150.906 111.25 364.938 100.75 502.064-34.562 79.5-78.438 115.75-182.562 111.25-285.312l-112.25-22.156zM317.43579 320.062c94.156-92.938 239.438-104.438 346.312-34.562l-75 72.968 275.188 38.406-38.376-268.876-83.938 80.688C590.68379 97.342 376.71579 107.968 239.55979 243.248 160.05979 321.654 123.84179 425.78 128.30979 528.498l112.25 22.126c-11.876-81.75 13.126-167.718 76.876-230.562z" p-id="7583"></path></svg>