<?xml version="1.0" standalone="no"?><!DOCTYPE svg PUBLIC "-//W3C//DTD SVG 1.1//EN" "http://www.w3.org/Graphics/SVG/1.1/DTD/svg11.dtd"><svg t="1573750790728" class="icon" viewBox="0 0 1024 1024" version="1.1" xmlns="http://www.w3.org/2000/svg" p-id="5721" xmlns:xlink="http://www.w3.org/1999/xlink" width="200" height="200"><defs><style type="text/css"></style></defs><path d="M512 992C247.296 992 32 776.704 32 512S247.296 32 512 32s480 215.296 480 480-215.296 480-480 480z m0-80c220.512 0 400-179.488 400-400S732.512 112 512 112 112 291.488 112 512 291.488 912 512 912z" p-id="5722"></path><path d="M329.92 331.776a40 40 0 0 1 56.608 0l125.6 124.8 125.568-124.8a40 40 0 0 1 56.608 0c15.616 15.616 11.392 45.056-4.256 60.672l-121.216 120.512 123.552 122.784a40 40 0 0 1 2.944 53.312l-2.944 3.232a40 40 0 0 1-56.576 0l-123.68-122.976-123.712 122.976a40 40 0 0 1-56.576-56.544l123.52-122.784-121.184-120.512c-14.592-14.56-19.264-41.184-7.104-57.376z" p-id="5723"></path></svg>