<?xml version="1.0" standalone="no"?><!DOCTYPE svg PUBLIC "-//W3C//DTD SVG 1.1//EN" "http://www.w3.org/Graphics/SVG/1.1/DTD/svg11.dtd"><svg t="1573658372362" class="icon" viewBox="0 0 1024 1024" version="1.1" xmlns="http://www.w3.org/2000/svg" p-id="12088" xmlns:xlink="http://www.w3.org/1999/xlink" width="200" height="200"><defs><style type="text/css"></style></defs><path d="M511.996429 1024c282.628177 0 512.002143-229.375394 512.002142-512.003571C1024 229.375394 794.624606 0 511.996429 0 229.373966 0 0 229.375394 0 511.996429c0 282.626749 229.373966 512.003571 511.996429 512.003571m-158.571208-805.741733c12.288554-12.287126 32.768526-12.872839 45.05708-0.585714l266.823914 266.823914c1.171427 1.172856 2.344282 2.344282 3.509995 4.682851 6.439991 6.434277 9.364273 14.625694 9.364272 22.817111 0 8.192846-2.924282 16.968548-9.364272 23.409967L398.482301 805.741733c-12.288554 12.288554-32.182812 12.288554-45.05708-0.587142-12.287126-12.287126-12.872839-32.767097-0.585713-45.055651l249.269652-248.101083L353.425221 263.313918c-12.287126-12.287126-12.287126-32.767097 0-45.055651" p-id="12089"></path></svg>