<?xml version="1.0" standalone="no"?><!DOCTYPE svg PUBLIC "-//W3C//DTD SVG 1.1//EN" "http://www.w3.org/Graphics/SVG/1.1/DTD/svg11.dtd"><svg t="1573658425779" class="icon" viewBox="0 0 1024 1024" version="1.1" xmlns="http://www.w3.org/2000/svg" p-id="13798" xmlns:xlink="http://www.w3.org/1999/xlink" width="200" height="200"><defs><style type="text/css"></style></defs><path d="M470.367094 715.788924c-5.730664 5.541006-13.537582 8.952852-22.135075 8.952851-17.596261 0-31.857538-14.266268-31.857538-31.857538a31.765704 31.765704 0 0 1 8.942869-22.131082l180.204963-180.204962v45.043754l-180.193982-180.19498c-5.541006-5.731662-8.952852-13.536584-8.952852-22.135075 0-17.596261 14.261277-31.857538 31.857538-31.857538a31.733761 31.733761 0 0 1 22.130084 8.943868l180.200969 180.199971c5.764602 5.765601 9.326178 13.726242 9.326179 22.525371 0 8.79314-3.560578 16.753781-9.326179 22.519381L470.367094 715.788924z m180.195978-180.195979" fill="" p-id="13799"></path><path d="M1021.230495 513.073564c0-281.508241-228.176436-509.684676-509.683678-509.684677C230.044566 3.388887 1.867132 231.565323 1.867132 513.073564c0 281.502251 228.176436 509.678687 509.679685 509.678687 281.508241 0 509.683678-228.176436 509.683678-509.678687z m-955.653277 0C65.577218 266.76683 265.245075 67.098973 511.546817 67.098973c246.306734 0 445.974591 199.667857 445.974591 445.974591 0 246.300745-199.666859 445.967603-445.974591 445.967603-246.300745 0-445.9696-199.666859-445.969599-445.967603z m0 0" fill="" p-id="13800"></path></svg>