<?xml version="1.0" standalone="no"?><!DOCTYPE svg PUBLIC "-//W3C//DTD SVG 1.1//EN" "http://www.w3.org/Graphics/SVG/1.1/DTD/svg11.dtd"><svg t="1573658399359" class="icon" viewBox="0 0 1024 1024" version="1.1" xmlns="http://www.w3.org/2000/svg" p-id="12939" xmlns:xlink="http://www.w3.org/1999/xlink" width="200" height="200"><defs><style type="text/css"></style></defs><path d="M620.224 807.988l260.461-260.461c20.345-20.343 20.345-53.326 0-73.672l-260.461-260.462c-20.343-20.337-53.326-20.337-73.671 0-20.345 20.346-20.345 53.329 0 73.673l171.533 171.534h-603.531c-28.772 0-52.091 23.318-52.091 52.093 0 28.767 23.319 52.093 52.091 52.093h603.53l-171.533 171.532c-10.17 10.175-15.256 23.505-15.257 36.836 0 13.323 5.083 26.666 15.256 36.835 20.344 20.344 53.328 20.344 73.671 0v0zM620.224 807.988z" p-id="12940"></path></svg>