<?xml version="1.0" standalone="no"?><!DOCTYPE svg PUBLIC "-//W3C//DTD SVG 1.1//EN" "http://www.w3.org/Graphics/SVG/1.1/DTD/svg11.dtd"><svg t="1571839709866" class="icon" viewBox="0 0 1024 1024" version="1.1" xmlns="http://www.w3.org/2000/svg" p-id="19712" xmlns:xlink="http://www.w3.org/1999/xlink" width="200" height="200"><defs><style type="text/css"></style></defs><path d="M788.28155488 448.37042718c0-130.20061557-91.81714923-239.21543355-215.41299317-267.98047671v-28.87331692C572.8685617 116.25509421 543.95915269 87.92315197 508.26451494 87.92315197c-35.78486755 0-64.60404758 28.45826332-64.60404759 63.57543596v28.87331691C319.99244003 209.24522177 228.28356544 318.18785723 228.28356544 448.35238154v233.29640329L142.06062181 766.48220007v42.42573126h732.53410648v-42.40768479L788.38983033 681.63073923V448.37042718h-0.10827545zM508.17428515 936.07684803c6.02730483 0 11.63955607-0.41505362 17.2518073-1.66021613a85.55524869 85.55524869 0 0 0 62.07763214-50.04106807 83.55216227 83.55216227 0 0 0 6.85741291-33.04190208h-172.39175035c0 46.59431557 38.74438226 84.74318626 86.204898 84.74318628z" p-id="19713"></path></svg>