<?xml version="1.0" standalone="no"?><!DOCTYPE svg PUBLIC "-//W3C//DTD SVG 1.1//EN" "http://www.w3.org/Graphics/SVG/1.1/DTD/svg11.dtd"><svg t="1572281937283" class="icon" viewBox="0 0 1024 1024" version="1.1" xmlns="http://www.w3.org/2000/svg" p-id="4496" xmlns:xlink="http://www.w3.org/1999/xlink" width="200" height="200"><defs><style type="text/css"></style></defs><path d="M365.714286 219.428571h73.142857v219.428572H365.714286z" p-id="4497"></path><path d="M219.428571 438.857143V365.714286h219.428572v73.142857zM365.714286 585.142857h73.142857v219.428572H365.714286z" p-id="4498"></path><path d="M219.428571 658.285714V585.142857h219.428572v73.142857zM585.142857 219.428571h73.142857v219.428572H585.142857zM804.571429 146.285714h73.142857v73.142857h-73.142857zM731.428571 219.428571h73.142858v73.142858h-73.142858zM658.285714 292.571429h73.142857v73.142857H658.285714zM658.285714 658.285714h73.142857v73.142857H658.285714zM731.428571 731.428571h73.142858v73.142858h-73.142858zM804.571429 804.571429h73.142857v73.142857h-73.142857zM146.285714 146.285714h73.142857v73.142857H146.285714zM219.428571 219.428571h73.142858v73.142858H219.428571zM292.571429 292.571429h73.142857v73.142857H292.571429zM292.571429 658.285714h73.142857v73.142857H292.571429zM219.428571 731.428571h73.142858v73.142858H219.428571zM146.285714 804.571429h73.142857v73.142857H146.285714z" p-id="4499"></path><path d="M585.142857 438.857143V365.714286h219.428572v73.142857zM585.142857 585.142857h73.142857v219.428572H585.142857z" p-id="4500"></path><path d="M585.142857 658.285714V585.142857h219.428572v73.142857z" p-id="4501"></path></svg>