<?xml version="1.0" standalone="no"?><!DOCTYPE svg PUBLIC "-//W3C//DTD SVG 1.1//EN" "http://www.w3.org/Graphics/SVG/1.1/DTD/svg11.dtd"><svg t="1572281946369" class="icon" viewBox="0 0 1024 1024" version="1.1" xmlns="http://www.w3.org/2000/svg" p-id="4705" xmlns:xlink="http://www.w3.org/1999/xlink" width="200" height="200"><defs><style type="text/css"></style></defs><path d="M146.285714 146.285714h73.142857v219.428572H146.285714z" fill="#FFFFFF" p-id="4706"></path><path d="M146.285714 219.428571V146.285714h219.428572v73.142857zM146.285714 658.285714h73.142857v219.428572H146.285714z" p-id="4707"></path><path d="M146.285714 877.714286v-73.142857h219.428572v73.142857zM804.571429 146.285714h73.142857v219.428572h-73.142857zM731.428571 219.428571h73.142858v73.142858h-73.142858zM658.285714 292.571429h73.142857v73.142857H658.285714zM585.142857 365.714286h73.142857v73.142857H585.142857zM585.142857 585.142857h73.142857v73.142857H585.142857zM658.285714 658.285714h73.142857v73.142857H658.285714zM731.428571 731.428571h73.142858v73.142858h-73.142858zM219.428571 219.428571h73.142858v73.142858H219.428571zM292.571429 292.571429h73.142857v73.142857H292.571429zM365.714286 365.714286h73.142857v73.142857H365.714286zM365.714286 585.142857h73.142857v73.142857H365.714286zM292.571429 658.285714h73.142857v73.142857H292.571429zM219.428571 731.428571h73.142858v73.142858H219.428571z" p-id="4708"></path><path d="M658.285714 219.428571V146.285714h219.428572v73.142857zM804.571429 658.285714h73.142857v219.428572h-73.142857z" p-id="4709"></path><path d="M658.285714 877.714286v-73.142857h219.428572v73.142857z" p-id="4710"></path></svg>