<?xml version="1.0" standalone="no"?><!DOCTYPE svg PUBLIC "-//W3C//DTD SVG 1.1//EN" "http://www.w3.org/Graphics/SVG/1.1/DTD/svg11.dtd"><svg t="1572284146463" class="icon" viewBox="0 0 1024 1024" version="1.1" xmlns="http://www.w3.org/2000/svg" p-id="20031" xmlns:xlink="http://www.w3.org/1999/xlink" width="200" height="200"><defs><style type="text/css"></style></defs><path d="M851.048388 511.924499L438.136562 71.030218a43.509304 43.509304 0 0 1 0-58.865528 37.196189 37.196189 0 0 1 55.026473 0l429.462424 458.639251c21.32809 22.693088 21.32809 59.548028 0 82.241115l-429.462424 458.553939a37.196189 37.196189 0 0 1-55.026473 0 43.509304 43.509304 0 0 1 0-58.780216L851.048388 511.924499z" p-id="20032"></path><path d="M509.798945 511.924499L96.887119 71.030218a43.509304 43.509304 0 0 1 0-58.865528 37.196189 37.196189 0 0 1 55.026473 0l429.462424 458.639251c21.32809 22.693088 21.32809 59.548028 0 82.241115L151.913592 1011.598995a37.196189 37.196189 0 0 1-55.026473 0 43.509304 43.509304 0 0 1 0-58.780216L509.798945 511.924499z" p-id="20033"></path></svg>