<?xml version="1.0" standalone="no"?><!DOCTYPE svg PUBLIC "-//W3C//DTD SVG 1.1//EN" "http://www.w3.org/Graphics/SVG/1.1/DTD/svg11.dtd"><svg t="1572284152592" class="icon" viewBox="0 0 1024 1024" version="1.1" xmlns="http://www.w3.org/2000/svg" p-id="20207" xmlns:xlink="http://www.w3.org/1999/xlink" width="200" height="200"><defs><style type="text/css"></style></defs><path d="M172.689648 512.00384L585.665469 71.041227a43.516047 43.516047 0 0 0 0-58.874652 37.201954 37.201954 0 0 0-55.035001 0L101.101484 470.962234a61.007792 61.007792 0 0 0 0 82.253862l429.528984 458.625008c15.187954 16.211861 39.847047 16.211861 55.035001 0a43.516047 43.516047 0 0 0 0-58.789326L172.689648 512.00384z" p-id="20208"></path><path d="M513.99198 512.00384L926.967801 71.041227a43.516047 43.516047 0 0 0 0-58.874652 37.201954 37.201954 0 0 0-55.035001 0L442.403816 470.962234a61.007792 61.007792 0 0 0 0 82.253862l429.528984 458.625008c15.187954 16.211861 39.847047 16.211861 55.035001 0a43.516047 43.516047 0 0 0 0-58.789326L513.99198 512.00384z" p-id="20209"></path></svg>