<?xml version="1.0" standalone="no"?><!DOCTYPE svg PUBLIC "-//W3C//DTD SVG 1.1//EN" "http://www.w3.org/Graphics/SVG/1.1/DTD/svg11.dtd"><svg t="1573750708873" class="icon" viewBox="0 0 1024 1024" version="1.1" xmlns="http://www.w3.org/2000/svg" p-id="2652" xmlns:xlink="http://www.w3.org/1999/xlink" width="200" height="200"><defs><style type="text/css"></style></defs><path d="M796.2 341.2H221.8c-21.7-0.9-40 16-40.9 37.8-0.1 1.6 0 3.2 0.1 4.8v595.5c-1.8 21.7 14.3 40.7 36 42.5 1.6 0.1 3.2 0.2 4.8 0.1h574.5c21.7 0.9 40-16 40.9-37.8 0.1-1.6 0-3.2-0.1-4.8V383.8c1.8-21.7-14.3-40.7-36-42.5-1.7-0.1-3.3-0.1-4.9-0.1z m-344 466.6c0 22.7-18.4 41-41 41-22.7 0-41-18.4-41-41V553.2c0-22.7 18.4-41 41-41 22.7 0 41 18.4 41 41v254.6z m201.2 0c0 22.7-18.4 41-41 41-22.7 0-41-18.4-41-41V553.2c0-22.7 18.4-41 41-41 22.7 0 41 18.4 41 41v254.6z m275.9-610.9c0.5-33.5-26.3-61.1-59.8-61.7H714.2v-6C716.5 61.3 663.3 4.3 595.4 2c-1.5-0.1-3.1-0.1-4.6-0.1H427.2c-68-0.2-123.2 54.7-123.4 122.7 0 1.5 0 3 0.1 4.6v6H154.1c-33.3 0.5-59.9 27.9-59.4 61.2v0.5c0.1 8.4 1.6 16.8 4.6 24.7 2.2 19.8 19 34.8 38.9 34.7 5.1 1.5 10.4 2.2 15.8 2.2h715.4c6.7 0 13.2-1.2 19.5-3.5 8.3-1.8 15.6-6.4 20.9-13 12.5-11.7 19.5-28 19.5-45.1z" p-id="2653"></path></svg>