<?xml version="1.0" standalone="no"?><!DOCTYPE svg PUBLIC "-//W3C//DTD SVG 1.1//EN" "http://www.w3.org/Graphics/SVG/1.1/DTD/svg11.dtd"><svg t="1573750719508" class="icon" viewBox="0 0 1024 1024" version="1.1" xmlns="http://www.w3.org/2000/svg" p-id="3392" xmlns:xlink="http://www.w3.org/1999/xlink" width="200" height="200"><defs><style type="text/css"></style></defs><path d="M182.26062222 893.87235555c0 68.00270222 54.79310222 125.94744889 122.37710224 125.9474489h407.9616c67.59537778 0 122.37710222-57.94474667 122.37710221-125.94858667l81.58776888-659.50151111h-815.91182223l81.60711113 659.50151111z m454.85852445-531.5834311h80.0711111v529.60824889h-80.0711111V362.28892445z m-176.86755556 0h96.80213334v529.60824889h-96.80213334V362.28892445z m-160.14791112 0h80.06883556v529.60824889h-80.06883556V362.28892445z m596.08291556-288.11946668H631.00700446s-18.26133333-80.09386667-40.80526223-80.09386666H427.02734222c-22.52117333 0-40.80298667 80.09500446-40.80298667 80.09500444H121.08003555c-33.80792889 0-61.19537778 29.55719111-61.19537777 63.55057777v32.31288889h897.52917333v-32.31288889c0-33.99338667-27.43523555-63.55057778-61.22723556-63.55057777z m0 0" p-id="3393"></path></svg>