<?xml version="1.0" standalone="no"?><!DOCTYPE svg PUBLIC "-//W3C//DTD SVG 1.1//EN" "http://www.w3.org/Graphics/SVG/1.1/DTD/svg11.dtd"><svg t="1619417760157" class="icon" viewBox="0 0 1024 1024" version="1.1" xmlns="http://www.w3.org/2000/svg" p-id="32202" xmlns:xlink="http://www.w3.org/1999/xlink" width="200" height="200"><defs><style type="text/css"></style></defs><path d="M512 256c150.912 0 291.712 57.728 396.501333 162.517333l60.330667-60.330666C847.957333 237.269333 685.696 170.666667 512 170.666667c-173.696 0.042667-335.957333 66.602667-456.832 187.52l60.330667 60.330666C220.288 313.728 361.088 256 512 256z m241.962667 354.432c-131.157333-131.157333-352.768-131.157333-483.925334 0l60.330667 60.330667c98.432-98.432 264.832-98.432 363.264 0l60.330667-60.330667z" fill="" p-id="32203"></path><path d="M871.978667 481.834667c-195.072-195.157333-524.842667-195.157333-719.914667 0l60.330667 60.330666c162.432-162.432 436.821333-162.432 599.253333 0l60.330667-60.330666z" fill="" p-id="32204"></path><path d="M512 768m-85.333333 0a85.333333 85.333333 0 1 0 170.666666 0 85.333333 85.333333 0 1 0-170.666666 0Z" fill="" p-id="32205"></path></svg>