<?xml version="1.0" standalone="no"?><!DOCTYPE svg PUBLIC "-//W3C//DTD SVG 1.1//EN" "http://www.w3.org/Graphics/SVG/1.1/DTD/svg11.dtd"><svg t="1571766547357" class="icon" viewBox="0 0 1024 1024" version="1.1" xmlns="http://www.w3.org/2000/svg" p-id="4054" xmlns:xlink="http://www.w3.org/1999/xlink" width="200" height="200"><defs><style type="text/css"></style></defs><path d="M916.9 964h-187c-25.5 0.8-46.8-19.4-47.6-45.2-0.8-25.8 19.2-47.4 44.6-48.3h77.2L571.9 638c-8.5-8.6-13.2-20.3-13.3-32.5 0.2-26 21-46.9 46.6-46.8 12.1-0.1 23.7 4.6 32.4 13.2h0.5l232.2 232.4v-74.2c0.1-26.2 21.2-47.4 47.1-47.2 25.7 0.1 46.5 21.2 46.6 47.2v187.1c-0.3 26.2-21.4 47.1-47.1 46.8z m0-623.5c-25.6 0.1-46.5-20.8-46.6-46.7v-74.2L638.1 452.1h-0.5c-8.6 8.6-20.3 13.3-32.4 13.2-25.6 0.1-46.5-20.8-46.6-46.8 0.1-12.2 4.9-23.8 13.3-32.5l232.2-232.4h-74.2c-25.5 0.8-46.8-19.4-47.6-45.2-0.8-25.8 19.2-47.4 44.6-48.3h190c25.7-0.3 46.8 20.5 47.1 46.6v187.2c-0.3 26.1-21.4 46.9-47.1 46.6zM452.1 638L219.4 870.5h74.2c25.5-0.8 46.8 19.4 47.6 45.2 0.8 25.8-19.2 47.4-44.6 48.3h-190c-25.6 0.1-46.4-20.8-46.6-46.8v-187c0.2-26.1 21.2-47.1 46.9-47 25.5 0.2 46.2 21.1 46.3 47v74.2L385.9 572c8.7-8.4 20.3-13.1 32.4-13.2 25.6-0.1 46.5 20.8 46.6 46.8 0.1 12-4.5 23.6-12.8 32.4z m-33.8-172.8c-12-0.1-23.6-4.8-32.4-13.2L153.3 219.6v74.2c-0.2 26.1-21.2 47.1-46.9 47-25.5-0.2-46.2-21.1-46.3-47v-187c0.2-26 21-46.9 46.6-46.8h187c25.5-0.8 46.8 19.4 47.6 45.2 0.8 25.8-19.2 47.4-44.6 48.3h-77.2L452.1 386c8.3 8.7 12.9 20.3 12.8 32.5-0.1 25.9-21 46.9-46.6 46.7z" p-id="4055"></path></svg>